<?xml version="1.0" encoding="UTF-8" standalone="no"?> <!-- Created with Inkscape (http://www.inkscape.org/) --> <svg xmlns:inkscape="http://www.inkscape.org/namespaces/inkscape" xmlns:sodipodi="http://sodipodi.sourceforge.net/DTD/sodipodi-0.dtd" xmlns="http://www.w3.org/2000/svg" xmlns:svg="http://www.w3.org/2000/svg" version="1.1" id="svg1" width="163.21054" height="183.20924" viewBox="0 0 163.21054 183.20924" sodipodi:docname="Logo_Greenland-Organic.png"><defs id="defs1"></defs><g inkscape:groupmode="layer" inkscape:label="Image" id="g1" transform="translate(-45.60503,-15.632078)"><path style="fill:#fcd764;stroke:none" d="m 79.544828,30.629377 c 2.67175,4.845169 8.19777,4.013367 13,5.814819 11.888052,4.459549 22.995632,11.618195 36.000002,12.185181 v 1 c -39.748812,0 -78.958372,25.899506 -82.829482,67.999993 -0.75836,8.24771 2.59051,16.0271 4.02084,24 1.58029,8.80887 -8.42444,23.58782 1.02237,29.90973 5.8273,3.89969 11.88663,-0.55829 17.78627,-1.58102 5.55358,-0.96274 10.71489,0.5861 16,2.09259 13.22699,3.77026 20.239032,12.81425 32.000002,19.08873 13.177,7.02993 28.32304,8.42913 43,7.40046 11.59524,-0.81268 25.85431,-4.57702 35.99537,-10.32406 7.86086,-4.45484 6.58551,-11.21216 -0.99537,-14.58643 15.17145,-21.18574 22.19356,-49.40726 0.82947,-69.40972 -4.68253,-4.384088 -10.04187,-8.042004 -15.82947,-10.805554 -3.03844,-1.45083 -8.00768,-2.243879 -9.97222,-5.203702 -3.32687,-5.012352 1.67501,-12.068291 0.74382,-17.581017 -0.57748,-3.418808 -3.66105,-6.445557 -3.19368,-10 0.68895,-5.239502 12.50361,-19.135986 -2.57792,-14 -3.67671,-7.065063 -7.9635,-15.456024 -14.00386,-20.814819 C 129.69596,7.3215922 99.938988,17.134535 79.544828,30.629377 m 74.000002,7 -33,-8 v 4 l 32,8 v 1 c -11.68039,2.265183 -23.46588,3.243057 -35,-0.520065 -9.81552,-3.202408 -18.708652,-9.937393 -29.000002,-11.479935 15.427192,-15.591629 56.067232,-16.054474 65.000002,7 m 3,18 c -6.01787,-7.615234 -15.35706,-4.318878 -24.00001,-5 5.14022,-2.161743 19.55547,-5.318359 24.98072,-3.957565 6.6456,1.666885 3.85202,7.554458 -0.98071,8.957565 m 8,33 c -32.4596,-2.561722 -82.906222,6.254059 -79.910492,49.999993 0.72274,10.55397 5.56902,18.70126 9.91049,28 -8.45481,-0.18011 -16.61903,-6.06296 -25,-4.66667 -4.4566,0.74248 -11.12164,6.95084 -15.56636,4.3943 -5.24405,-3.01631 1.78575,-19.69839 0.1412,-25.72763 -9.06757,-33.24351 5.17916,-63.106926 36.42516,-78.729928 16.876332,-8.438171 30.998272,-7.49971 49.000002,-6.544754 7.19645,0.38176 16.73669,-0.450546 21.79397,6.710648 6.35434,8.997864 3.00559,16.47403 3.20603,26.564041 m -17,-27 v 5 h 2 v -5 h -2 m -31,4 3,3 1,-3 h -4 m 33,9 v 4 h 4 v -4 h -4 m -68.000002,4 v 5 l 3,-1 -1,-4 h -2 m 29.000002,6 v 5 h 2 v -5 h -2 m 28,7.289349 c 20.21542,-2.627011 44.37892,3.13463 57.48225,19.711414 23.30216,29.47914 -5.11873,62.218 -36.48225,66.69908 -22.7141,3.24528 -49.44168,-3.50147 -62.451392,-23.69985 C 77.570258,124.3184 109.74221,95.661656 138.54483,91.918726 m -26,20.710644 c -23.705422,3.56889 -19.479542,44.07965 4,46 2.54503,13.14465 12.47609,10.28484 22,13.27393 13.73175,4.3097 15.80212,-0.23279 28,-4.6713 4.89198,-1.78009 10.12742,-0.47612 14.99923,-3.04477 7.7109,-4.06552 6.82766,-9.85937 10.01235,-16.55786 2.459,-5.1721 6.89032,-8.7616 6.72145,-15 -0.19444,-7.18292 -5.44318,-9.77865 -8.71991,-15.28549 -2.25616,-3.7917 -1.98981,-8.01063 -5.35339,-11.37423 -5.10668,-5.10668 -10.66173,-2.79413 -16.62038,-4.92901 -3.41086,-1.222038 -5.68083,-4.393064 -9.05402,-5.797834 -9.10946,-3.793673 -14.73648,0.62196 -22.98533,3.374226 -9.68524,3.231518 -21.52929,-0.244426 -23,14.012338 m 37,14 h -2 c -2.87593,-4.92734 -11.98171,-18.14607 -8.30324,-23.78626 3.30763,-5.071594 20.29744,-7.622864 21.06248,0.83024 0.61089,6.74974 -8.16784,16.73169 -10.75924,22.95602 m -6,1 -27,-14 c 1.18978,-5.8799 10.1391,-14.315328 16.18209,-8.39661 4.81359,4.71459 8.20832,16.12862 10.81791,22.39661 m 12,1 -1,-1 c 1.7176,-5.96222 6.00209,-18.52175 12.10493,-21.10648 6.02248,-2.5507 19.66086,0.99515 17.10648,9.89274 -1.77809,6.19357 -22.43765,10.84552 -28.21141,12.21374 m -83.000002,-8 -1,-4 c -4.30528,1.43092 -3.46814,4.6891 1,4 m 66.000002,11 c -8.12918,2.40286 -17.57157,0.72916 -25.99923,1.03626 -3.3886,0.12349 -7.91356,1.60473 -9.82176,-2.20987 -3.239352,-6.47565 4.46859,-13.96104 10.82099,-13.25849 7.60209,0.84077 19.31307,9.49012 25,14.4321 m 46.99923,-9.1875 c 9.55669,0.7067 11.42955,19.62006 0.99691,19.60031 -4.10861,-0.008 -25.25902,-4.11571 -26.07485,-8.58256 -0.45968,-2.51692 3.40187,-3.57976 5.08333,-4.25 5.35898,-2.13616 14.21597,-7.19507 19.99461,-6.76775 m -46.99923,14.1875 c -4.6557,5.09412 -15.16416,15.87747 -22,16.84799 -5.97032,0.84764 -18.383142,-5.99029 -13.92902,-13.53009 1.70238,-2.88171 6.11285,-2.3121 8.92902,-2.3179 9.05304,-0.0186 17.96574,-1 27,-1 m 19,3 1,-1 c 5.96628,1.94067 23.34025,3.6945 26.96835,8.58873 6.07089,8.18948 -10.95174,17.81667 -17.69058,14.80402 -5.17597,-2.31397 -8.17603,-17.26848 -10.27777,-22.39275 m -14,1 c -0.33148,3.80148 -1.37691,7.33601 -2.4213,11 -1.10804,3.88731 -1.84976,11.40064 -5.28087,13.97223 -4.41769,3.31102 -13.37368,-0.62363 -14.08641,-5.97609 -1.00012,-7.5106 15.64554,-17.5526 21.78858,-18.99614 m 11,2 c 2.12341,5.47476 8.72577,16.12427 5.9321,21.95679 -2.59169,5.41083 -15.70073,9.55029 -18.23534,1.90973 -2.09706,-6.32161 4.342,-17.33335 5.30324,-23.86652 h 7 m -87.000002,3 -1,4 h 4 l -1,-4 h -2 m 15,11 4,4 c 0.54685,-3.54687 -0.45311,-4.54684 -4,-4 m 19.000002,9 c 27.07301,25.83591 61.56895,19.38522 91,3 -15.44045,22.39433 -47.0069,29.29358 -71,17.19058 -6.90344,-3.48234 -19.56356,-11.6726 -20,-20.19058 z" id="path2"></path></g></svg> 