<svg xmlns="http://www.w3.org/2000/svg" width="96" height="96" viewBox="0 0 96 96" fill="none">
  <circle cx="48" cy="48" r="46" fill="#ECFDF5" stroke="#10B981" stroke-width="4"/>
  <path d="M28 58C28 42.536 40.536 30 56 30V36C43.8497 36 34 45.8497 34 58H28Z" fill="#34D399"/>
  <path d="M56 30C56 45.464 43.464 58 28 58V52C40.1503 52 50 42.1503 50 30H56Z" fill="#059669"/>
  <path d="M58 62C58 69.732 51.732 76 44 76C36.268 76 30 69.732 30 62C30 54.268 36.268 48 44 48C51.732 48 58 54.268 58 62Z" fill="#10B981"/>
</svg>